<svg width="128" height="128" viewBox="0 0 128 128" fill="none" xmlns="http://www.w3.org/2000/svg">
<path d="M58.6274 47.7791C59.9989 47.0276 61.6507 46.9925 63.0529 47.6849L116.873 74.2629C120.425 76.0166 120.437 81.0763 116.895 82.8476L65.3838 108.603C64.0187 109.286 62.41 109.277 61.052 108.58L10.5395 82.6594C7.11926 80.9043 7.05321 76.0389 10.4246 74.1916L58.6274 47.7791Z" fill="white"/>
<g filter="url(#filter0_d_814_370)">
<path d="M58.6274 34.074C59.9989 33.3225 61.6507 33.2874 63.0529 33.9798L116.873 60.5578C120.425 62.3115 120.437 67.3712 116.895 69.1425L65.3838 94.8979C64.0187 95.5805 62.41 95.5721 61.052 94.8752L10.5395 68.9543C7.11926 67.1992 7.05321 62.3339 10.4246 60.4865L58.6274 34.074Z" fill="white"/>
</g>
<g filter="url(#filter1_d_814_370)">
<path d="M58.6274 19.574C59.9989 18.8225 61.6507 18.7874 63.0529 19.4798L116.873 46.0578C120.425 47.8115 120.437 52.8712 116.895 54.6425L65.3838 80.3979C64.0187 81.0805 62.41 81.0721 61.052 80.3752L10.5395 54.4543C7.11926 52.6992 7.05321 47.8339 10.4246 45.9865L58.6274 19.574Z" fill="white"/>
</g>
<g filter="url(#filter2_d_814_370)">
<path d="M45.0864 57.3975L42.2829 46.908L39.5109 57.3975H34.3764L34.375 37.395H38.785L37.2429 52.2945L42.2829 37.395H46.2834V48.8925L48.4995 39.915L51.562 41.0175L50.2209 57.3975H45.0864Z" fill="#A057F6"/>
<path d="M52.8194 58.4293V42.0493H60.6944C64.9469 42.0493 67.152 43.4668 67.152 46.4593C67.152 49.1368 64.632 49.7668 64.632 49.7668V49.9243C64.632 49.9243 67.6245 50.5543 67.6245 53.7043C67.6245 56.8543 65.5769 58.4293 61.1669 58.4293H52.8194ZM60.6944 51.4993H57.2294V55.2793H61.0094C62.4269 55.2793 63.2145 54.6493 63.2145 53.3893C63.2145 52.1293 62.2694 51.4993 60.6944 51.4993ZM57.2294 48.6643H60.3794C61.9544 48.6643 62.742 48.0343 62.742 46.9318C62.742 45.8293 62.1119 45.1993 60.6944 45.1993H57.2294V48.6643Z" fill="#A057F6"/>
<path d="M75.4714 41.0175V57.3975H71.0614V41.0175H75.4714ZM70.7464 37.395C70.7464 36.009 71.8804 34.875 73.2664 34.875C74.6524 34.875 75.7864 36.009 75.7864 37.395C75.7864 38.781 74.6524 39.915 73.2664 39.915C71.8804 39.915 70.7464 38.781 70.7464 37.395Z" fill="#2F114D"/>
<path d="M77.687 57.3975C76.024 56.9498 76.0796 41.4348 77.687 41.0175C79.2944 40.6002 81.3824 40.1327 81.9395 41.0175C82.4966 41.9023 81.8781 43.6914 81.9395 43.695C82.0009 43.6986 82.0355 43.6958 82.097 43.695C82.1585 43.6942 83.042 40.545 87.137 40.545C91.232 40.545 92.9645 43.5375 92.9645 47.3175C92.9645 51.0975 94.5423 56.7072 92.9645 57.3975C91.3867 58.0878 90.1054 58.1462 88.5545 57.3975C87.0036 56.6488 88.5545 51.0975 88.5545 48.2625C88.5545 45.4275 87.9245 44.1675 85.7195 44.1675C83.5145 44.1675 82.097 45.585 82.097 48.8925C82.097 52.2 83.6259 56.6047 82.097 57.3975C80.5681 58.1903 79.35 57.8452 77.687 57.3975Z" fill="#2F114D"/>
<path d="M60.6943 41.8613C62.8354 41.8613 64.4948 42.2176 65.623 42.9766C66.7644 43.7446 67.3398 44.9097 67.3398 46.459C67.3398 47.8667 66.6733 48.7446 66.0078 49.2646C65.6771 49.523 65.3468 49.6933 65.0996 49.7988C65.0649 49.8137 65.0304 49.8245 64.999 49.8369C65.0503 49.8544 65.1067 49.8742 65.167 49.8975C65.4588 50.0101 65.8485 50.1945 66.2393 50.4824C67.0255 51.0618 67.8115 52.0584 67.8115 53.7041C67.8115 55.3235 67.2827 56.5676 66.1611 57.3984C65.0507 58.221 63.3882 58.6172 61.167 58.6172H52.6318V41.8613H60.6943ZM80.1934 40.3418C80.599 40.3119 80.9851 40.3225 81.3115 40.4033C81.6388 40.4844 81.9248 40.6419 82.0986 40.918C82.2603 41.175 82.33 41.4866 82.3525 41.7949C82.3752 42.1051 82.3512 42.4265 82.3115 42.7129C82.3014 42.7859 82.2861 42.8563 82.2744 42.9248C82.4342 42.6494 82.6583 42.3203 82.9678 41.9912C83.7412 41.1687 85.0342 40.3575 87.1367 40.3574C89.2351 40.3574 90.7497 41.1276 91.7344 42.3994C92.7132 43.6639 93.1523 45.4024 93.1523 47.3174C93.1523 49.1953 93.5439 51.5156 93.7432 53.4971C93.8419 54.4788 93.8926 55.38 93.8164 56.083C93.742 56.7688 93.5375 57.3515 93.04 57.5693C92.236 57.9211 91.4951 58.1174 90.751 58.125C90.0057 58.1326 89.269 57.9508 88.4727 57.5664C87.9881 57.3323 87.7871 56.7479 87.7139 56.0732C87.6389 55.3821 87.689 54.5126 87.7861 53.5928C87.8834 52.6721 88.0298 51.6828 88.1504 50.7568C88.2716 49.8258 88.3672 48.9579 88.3672 48.2627C88.3672 46.8482 88.2076 45.8737 87.8066 45.2539C87.42 44.6564 86.7841 44.3555 85.7197 44.3555C84.6599 44.3555 83.8131 44.6936 83.2266 45.4082C82.6348 46.1294 82.2842 47.2616 82.2842 48.8926C82.2842 50.5321 82.6626 52.4299 82.8564 54.0664C82.9522 54.8748 83.0024 55.6225 82.9277 56.2227C82.8536 56.8181 82.6492 57.3218 82.1836 57.5635C80.5819 58.394 79.2938 58.0237 77.6387 57.5781C77.4696 57.5326 77.3391 57.4011 77.2383 57.2471C77.1352 57.0896 77.0456 56.8822 76.9658 56.6406C76.806 56.1565 76.6756 55.4987 76.5732 54.7324C76.3682 53.1973 76.27 51.1936 76.2734 49.1953C76.2769 47.1971 76.3822 45.196 76.5889 43.665C76.6921 42.9007 76.8222 42.2456 76.9795 41.7646C77.058 41.5247 77.1455 41.3189 77.2461 41.1631C77.344 41.0116 77.4719 40.8796 77.6396 40.8359C78.4426 40.6275 79.3818 40.4016 80.1934 40.3418ZM38.9932 37.207L38.9717 37.4141L37.6016 50.6475L42.1055 37.335L42.1484 37.207H46.4707V47.3516L48.3174 39.8701L48.3672 39.668L48.5635 39.7383L51.626 40.8408L51.7607 40.8896L51.749 41.0332L50.4082 57.4131L50.3936 57.585H44.9424L44.9053 57.4463L42.2832 47.6377L39.6924 57.4453L39.6553 57.585H34.1885V57.3975L34.1875 37.3945V37.207H38.9932ZM75.6592 40.8301V57.585H70.874V40.8301H75.6592ZM57.417 55.0918H61.0098C61.6943 55.0917 62.195 54.9388 62.5225 54.6631C62.8443 54.3921 63.0273 53.9785 63.0273 53.3896C63.0273 52.8127 62.8139 52.3989 62.4346 52.123C62.046 51.8406 61.461 51.6865 60.6943 51.6865H57.417V55.0918ZM57.417 48.4766H60.3799C61.1466 48.4765 61.6908 48.3227 62.0391 48.0615C62.3785 47.8069 62.5547 47.4333 62.5547 46.9316C62.5547 46.4165 62.4084 46.0423 62.126 45.793C61.839 45.5397 61.3792 45.3867 60.6943 45.3867H57.417V48.4766ZM73.2666 34.6875C74.7559 34.6876 75.9734 35.9053 75.9736 37.3945C75.9736 38.884 74.7561 40.1024 73.2666 40.1025C71.777 40.1025 70.5586 38.8841 70.5586 37.3945C70.5588 35.9052 71.7772 34.6875 73.2666 34.6875Z" stroke="black" stroke-width="0.375"/>
</g>
<defs>
<filter id="filter0_d_814_370" x="1.54381" y="33.4844" width="124.391" height="74.7009" filterUnits="userSpaceOnUse" color-interpolation-filters="sRGB">
<feFlood flood-opacity="0" result="BackgroundImageFix"/>
<feColorMatrix in="SourceAlpha" type="matrix" values="0 0 0 0 0 0 0 0 0 0 0 0 0 0 0 0 0 0 127 0" result="hardAlpha"/>
<feOffset dy="6.39076"/>
<feGaussianBlur stdDeviation="3.19538"/>
<feComposite in2="hardAlpha" operator="out"/>
<feColorMatrix type="matrix" values="0 0 0 0 0 0 0 0 0 0 0 0 0 0 0 0 0 0 0.25 0"/>
<feBlend mode="normal" in2="BackgroundImageFix" result="effect1_dropShadow_814_370"/>
<feBlend mode="normal" in="SourceGraphic" in2="effect1_dropShadow_814_370" result="shape"/>
</filter>
<filter id="filter1_d_814_370" x="0.0845704" y="17.5251" width="127.31" height="77.6194" filterUnits="userSpaceOnUse" color-interpolation-filters="sRGB">
<feFlood flood-opacity="0" result="BackgroundImageFix"/>
<feColorMatrix in="SourceAlpha" type="matrix" values="0 0 0 0 0 0 0 0 0 0 0 0 0 0 0 0 0 0 127 0" result="hardAlpha"/>
<feOffset dy="6.39076"/>
<feGaussianBlur stdDeviation="3.925"/>
<feComposite in2="hardAlpha" operator="out"/>
<feColorMatrix type="matrix" values="0 0 0 0 0 0 0 0 0 0 0 0 0 0 0 0 0 0 0.16 0"/>
<feBlend mode="normal" in2="BackgroundImageFix" result="effect1_dropShadow_814_370"/>
<feBlend mode="normal" in="SourceGraphic" in2="effect1_dropShadow_814_370" result="shape"/>
</filter>
<filter id="filter2_d_814_370" x="24.4" y="30.2333" width="73.9072" height="38.1709" filterUnits="userSpaceOnUse" color-interpolation-filters="sRGB">
<feFlood flood-opacity="0" result="BackgroundImageFix"/>
<feColorMatrix in="SourceAlpha" type="matrix" values="0 0 0 0 0 0 0 0 0 0 0 0 0 0 0 0 0 0 127 0" result="hardAlpha"/>
<feMorphology radius="2.66667" operator="dilate" in="SourceAlpha" result="effect1_dropShadow_814_370"/>
<feOffset dx="-2.66667" dy="2.66667"/>
<feGaussianBlur stdDeviation="2.13333"/>
<feComposite in2="hardAlpha" operator="out"/>
<feColorMatrix type="matrix" values="0 0 0 0 0 0 0 0 0 0 0 0 0 0 0 0 0 0 0.33 0"/>
<feBlend mode="normal" in2="BackgroundImageFix" result="effect1_dropShadow_814_370"/>
<feBlend mode="normal" in="SourceGraphic" in2="effect1_dropShadow_814_370" result="shape"/>
</filter>
</defs>
</svg>
