<svg width="16" height="16" viewBox="0 0 16 16" fill="none" xmlns="http://www.w3.org/2000/svg">
<path d="M7.32843 5.97239C7.49986 5.87845 7.70634 5.87406 7.88162 5.96061L14.6092 9.28286C15.0531 9.50208 15.0546 10.1345 14.6118 10.3559L8.17298 13.5754C8.00233 13.6607 7.80125 13.6596 7.6315 13.5725L1.31744 10.3324C0.889907 10.113 0.881651 9.50487 1.30307 9.27395L7.32843 5.97239Z" fill="white"/>
<g filter="url(#filter0_d_814_344)">
<path d="M7.32843 4.25925C7.49986 4.16532 7.70634 4.16092 7.88162 4.24748L14.6092 7.56973C15.0531 7.78894 15.0546 8.4214 14.6118 8.64281L8.17298 11.8622C8.00233 11.9476 7.80125 11.9465 7.6315 11.8594L1.31744 8.61929C0.889907 8.3999 0.881651 7.79173 1.30307 7.56082L7.32843 4.25925Z" fill="white"/>
</g>
<g filter="url(#filter1_d_814_344)">
<path d="M7.32843 2.44675C7.49986 2.35282 7.70634 2.34842 7.88162 2.43498L14.6092 5.75723C15.0531 5.97644 15.0546 6.6089 14.6118 6.83031L8.17298 10.0497C8.00233 10.1351 7.80125 10.134 7.6315 10.0469L1.31744 6.80679C0.889907 6.5874 0.881651 5.97923 1.30307 5.74832L7.32843 2.44675Z" fill="white"/>
</g>
<g filter="url(#filter2_d_814_344)">
<path d="M5.6358 7.17469L5.28536 5.8635L4.93886 7.17469H4.29705L4.29688 4.67437H4.84813L4.65536 6.53681L5.28536 4.67437H5.78542V6.11156L6.06244 4.98938L6.44525 5.12719L6.27761 7.17469H5.6358Z" fill="#A057F6"/>
<path d="M6.60243 7.30366V5.25616H7.5868C8.11837 5.25616 8.394 5.43335 8.394 5.80741C8.394 6.1421 8.079 6.22085 8.079 6.22085V6.24053C8.079 6.24053 8.45306 6.31928 8.45306 6.71303C8.45306 7.10678 8.19712 7.30366 7.64587 7.30366H6.60243ZM7.5868 6.43741H7.15368V6.90991H7.62618C7.80337 6.90991 7.90181 6.83116 7.90181 6.67366C7.90181 6.51616 7.78368 6.43741 7.5868 6.43741ZM7.15368 6.08303H7.54743C7.7443 6.08303 7.84275 6.00428 7.84275 5.86647C7.84275 5.72866 7.76399 5.64991 7.5868 5.64991H7.15368V6.08303Z" fill="#A057F6"/>
<path d="M9.43393 5.12719V7.17469H8.88268V5.12719H9.43393ZM8.8433 4.67437C8.8433 4.50113 8.98505 4.35938 9.1583 4.35938C9.33155 4.35938 9.4733 4.50113 9.4733 4.67437C9.4733 4.84763 9.33155 4.98938 9.1583 4.98938C8.98505 4.98938 8.8433 4.84763 8.8433 4.67437Z" fill="#2F114D"/>
<path d="M9.71088 7.17469C9.503 7.11872 9.50995 5.17935 9.71088 5.12719C9.9118 5.07502 10.1728 5.01658 10.2424 5.12719C10.3121 5.23779 10.2348 5.46142 10.2424 5.46187C10.2501 5.46233 10.2544 5.46198 10.2621 5.46187C10.2698 5.46177 10.3803 5.06812 10.8921 5.06812C11.404 5.06812 11.6206 5.44219 11.6206 5.91469C11.6206 6.38719 11.8178 7.0884 11.6206 7.17469C11.4233 7.26097 11.2632 7.26828 11.0693 7.17469C10.8754 7.0811 11.0693 6.38719 11.0693 6.03281C11.0693 5.67844 10.9906 5.52094 10.7149 5.52094C10.4393 5.52094 10.2621 5.69812 10.2621 6.11156C10.2621 6.525 10.4532 7.07559 10.2621 7.17469C10.071 7.27378 9.91875 7.23065 9.71088 7.17469Z" fill="#2F114D"/>
<path d="M7.58691 5.23242C7.85449 5.23243 8.06211 5.27721 8.20312 5.37207C8.3457 5.46808 8.41699 5.61401 8.41699 5.80762C8.41693 5.98349 8.33414 6.09323 8.25098 6.1582C8.20977 6.19039 8.16855 6.21141 8.1377 6.22461C8.13309 6.22657 8.12815 6.22787 8.12402 6.22949C8.13058 6.23171 8.13776 6.23432 8.14551 6.2373C8.18198 6.25138 8.23143 6.27455 8.28027 6.31055C8.37842 6.38299 8.47652 6.5075 8.47656 6.71289C8.47656 6.91521 8.41055 7.07094 8.27051 7.1748C8.1317 7.27762 7.92317 7.32715 7.64551 7.32715H6.5791V5.23242H7.58691ZM10.1641 5.05078C10.2048 5.06092 10.241 5.07989 10.2627 5.11426C10.2829 5.1464 10.2911 5.18604 10.2939 5.22461C10.2967 5.26323 10.294 5.30319 10.2891 5.33887C10.2876 5.34971 10.284 5.3601 10.2822 5.37012C10.3023 5.33485 10.3308 5.29188 10.3711 5.24902C10.4678 5.14621 10.6297 5.04492 10.8926 5.04492C11.1546 5.04503 11.3438 5.14095 11.4668 5.2998C11.5892 5.45786 11.6436 5.67565 11.6436 5.91504C11.6436 6.14973 11.6929 6.43993 11.7178 6.6875C11.7301 6.81009 11.7371 6.92294 11.7275 7.01074C11.7182 7.09635 11.692 7.1691 11.6299 7.19629C11.5294 7.24023 11.4367 7.26467 11.3438 7.26562C11.2507 7.26655 11.159 7.24329 11.0596 7.19531C10.999 7.16606 10.973 7.09314 10.9639 7.00879C10.9546 6.92249 10.9615 6.814 10.9736 6.69922C10.9858 6.58419 11.0035 6.46043 11.0186 6.34473C11.0337 6.22851 11.0459 6.12004 11.0459 6.0332C11.0459 5.85637 11.0257 5.73372 10.9756 5.65625C10.9272 5.58184 10.8477 5.54395 10.7148 5.54395C10.5825 5.54397 10.4766 5.58658 10.4033 5.67578C10.3294 5.7659 10.2852 5.90758 10.2852 6.11133C10.2852 6.31614 10.3332 6.55333 10.3574 6.75781C10.3694 6.85867 10.3755 6.95239 10.3662 7.02734C10.3569 7.10182 10.3307 7.16511 10.2725 7.19531C10.0724 7.2989 9.91176 7.25291 9.70508 7.19727C9.68411 7.19162 9.66783 7.1753 9.65527 7.15625C9.6424 7.13658 9.63106 7.11024 9.62109 7.08008C9.60112 7.01959 9.58408 6.93754 9.57129 6.8418C9.54566 6.6499 9.53374 6.39921 9.53418 6.14941C9.53462 5.89963 9.5474 5.64938 9.57324 5.45801C9.58613 5.3626 9.60244 5.28079 9.62207 5.2207C9.63188 5.19071 9.64367 5.16498 9.65625 5.14551C9.66848 5.12663 9.68414 5.10993 9.70508 5.10449C9.80543 5.07844 9.923 5.05045 10.0244 5.04297C10.075 5.03925 10.1233 5.04069 10.1641 5.05078ZM4.87402 4.65137L4.87109 4.67676L4.7002 6.3291L5.2627 4.66699L5.26855 4.65137H5.80859V5.91895L6.04004 4.9834L6.0459 4.95898L6.07031 4.96777L6.45312 5.10547L6.46973 5.11133L6.46875 5.12891L6.30078 7.17676L6.29883 7.19824H5.61816L5.61328 7.18066L5.28516 5.95312L4.96191 7.18066L4.95703 7.19824H4.27344V4.65137H4.87402ZM9.45703 5.10352V7.19824H8.85938V5.10352H9.45703ZM7.17676 6.88672H7.62598C7.71157 6.88672 7.77449 6.86748 7.81543 6.83301C7.85563 6.79915 7.87789 6.74737 7.87793 6.67383C7.87793 6.60187 7.8519 6.5501 7.80469 6.51562C7.75614 6.48032 7.68272 6.46095 7.58691 6.46094H7.17676V6.88672ZM7.17676 6.05957H7.54785C7.64347 6.05951 7.71141 6.04039 7.75488 6.00781C7.79732 5.97599 7.81934 5.92892 7.81934 5.86621C7.81929 5.80192 7.8009 5.75476 7.76562 5.72363C7.72974 5.69214 7.67224 5.67384 7.58691 5.67383H7.17676V6.05957ZM9.1582 4.33594C9.3444 4.33594 9.49707 4.48861 9.49707 4.6748C9.49684 4.8608 9.34425 5.0127 9.1582 5.0127C8.9722 5.01264 8.82055 4.86077 8.82031 4.6748C8.82031 4.48864 8.97205 4.33599 9.1582 4.33594Z" stroke="black" stroke-width="0.046875"/>
</g>
<defs>
<filter id="filter0_d_814_344" x="0.192855" y="4.18555" width="15.5489" height="9.33768" filterUnits="userSpaceOnUse" color-interpolation-filters="sRGB">
<feFlood flood-opacity="0" result="BackgroundImageFix"/>
<feColorMatrix in="SourceAlpha" type="matrix" values="0 0 0 0 0 0 0 0 0 0 0 0 0 0 0 0 0 0 127 0" result="hardAlpha"/>
<feOffset dy="0.798845"/>
<feGaussianBlur stdDeviation="0.399422"/>
<feComposite in2="hardAlpha" operator="out"/>
<feColorMatrix type="matrix" values="0 0 0 0 0 0 0 0 0 0 0 0 0 0 0 0 0 0 0.25 0"/>
<feBlend mode="normal" in2="BackgroundImageFix" result="effect1_dropShadow_814_344"/>
<feBlend mode="normal" in="SourceGraphic" in2="effect1_dropShadow_814_344" result="shape"/>
</filter>
<filter id="filter1_d_814_344" x="0.0104492" y="2.19064" width="15.9137" height="9.70249" filterUnits="userSpaceOnUse" color-interpolation-filters="sRGB">
<feFlood flood-opacity="0" result="BackgroundImageFix"/>
<feColorMatrix in="SourceAlpha" type="matrix" values="0 0 0 0 0 0 0 0 0 0 0 0 0 0 0 0 0 0 127 0" result="hardAlpha"/>
<feOffset dy="0.798845"/>
<feGaussianBlur stdDeviation="0.490625"/>
<feComposite in2="hardAlpha" operator="out"/>
<feColorMatrix type="matrix" values="0 0 0 0 0 0 0 0 0 0 0 0 0 0 0 0 0 0 0.16 0"/>
<feBlend mode="normal" in2="BackgroundImageFix" result="effect1_dropShadow_814_344"/>
<feBlend mode="normal" in="SourceGraphic" in2="effect1_dropShadow_814_344" result="shape"/>
</filter>
<filter id="filter2_d_814_344" x="3.05" y="3.77917" width="9.23822" height="4.77142" filterUnits="userSpaceOnUse" color-interpolation-filters="sRGB">
<feFlood flood-opacity="0" result="BackgroundImageFix"/>
<feColorMatrix in="SourceAlpha" type="matrix" values="0 0 0 0 0 0 0 0 0 0 0 0 0 0 0 0 0 0 127 0" result="hardAlpha"/>
<feMorphology radius="0.333333" operator="dilate" in="SourceAlpha" result="effect1_dropShadow_814_344"/>
<feOffset dx="-0.333333" dy="0.333333"/>
<feGaussianBlur stdDeviation="0.266667"/>
<feComposite in2="hardAlpha" operator="out"/>
<feColorMatrix type="matrix" values="0 0 0 0 0 0 0 0 0 0 0 0 0 0 0 0 0 0 0.33 0"/>
<feBlend mode="normal" in2="BackgroundImageFix" result="effect1_dropShadow_814_344"/>
<feBlend mode="normal" in="SourceGraphic" in2="effect1_dropShadow_814_344" result="shape"/>
</filter>
</defs>
</svg>
