<svg width="32" height="32" viewBox="0 0 32 32" fill="none" xmlns="http://www.w3.org/2000/svg">
<path d="M14.6569 11.9448C14.9997 11.7569 15.4127 11.7481 15.7632 11.9212L29.2184 18.5657C30.1062 19.0042 30.1093 20.2691 29.2237 20.7119L16.346 27.1507C16.0047 27.3214 15.6025 27.3193 15.263 27.1451L2.63488 20.6649C1.77981 20.2261 1.7633 19.0097 2.60614 18.5479L14.6569 11.9448Z" fill="white"/>
<g filter="url(#filter0_d_814_352)">
<path d="M14.6569 8.51851C14.9997 8.33064 15.4127 8.32185 15.7632 8.49496L29.2184 15.1395C30.1062 15.5779 30.1093 16.8428 29.2237 17.2856L16.346 23.7245C16.0047 23.8951 15.6025 23.893 15.263 23.7188L2.63488 17.2386C1.77981 16.7998 1.7633 15.5835 2.60614 15.1216L14.6569 8.51851Z" fill="white"/>
</g>
<g filter="url(#filter1_d_814_352)">
<path d="M14.6569 4.89351C14.9997 4.70564 15.4127 4.69685 15.7632 4.86996L29.2184 11.5145C30.1062 11.9529 30.1093 13.2178 29.2237 13.6606L16.346 20.0995C16.0047 20.2701 15.6025 20.268 15.263 20.0938L2.63488 13.6136C1.77981 13.1748 1.7633 11.9585 2.60614 11.4966L14.6569 4.89351Z" fill="white"/>
</g>
<g filter="url(#filter2_d_814_352)">
<path d="M11.2716 14.3494L10.5707 11.727L9.87773 14.3494H8.5941L8.59375 9.34875H9.69625L9.31073 13.0736L10.5707 9.34875H11.5708V12.2231L12.1249 9.97875L12.8905 10.2544L12.5552 14.3494H11.2716Z" fill="#A057F6"/>
<path d="M13.2049 14.6073V10.5123H15.1736C16.2367 10.5123 16.788 10.8667 16.788 11.6148C16.788 12.2842 16.158 12.4417 16.158 12.4417V12.4811C16.158 12.4811 16.9061 12.6386 16.9061 13.4261C16.9061 14.2136 16.3942 14.6073 15.2917 14.6073H13.2049ZM15.1736 12.8748H14.3074V13.8198H15.2524C15.6067 13.8198 15.8036 13.6623 15.8036 13.3473C15.8036 13.0323 15.5674 12.8748 15.1736 12.8748ZM14.3074 12.1661H15.0949C15.4886 12.1661 15.6855 12.0086 15.6855 11.7329C15.6855 11.4573 15.528 11.2998 15.1736 11.2998H14.3074V12.1661Z" fill="#A057F6"/>
<path d="M18.8679 10.2544V14.3494H17.7654V10.2544H18.8679ZM17.6866 9.34875C17.6866 9.00225 17.9701 8.71875 18.3166 8.71875C18.6631 8.71875 18.9466 9.00225 18.9466 9.34875C18.9466 9.69525 18.6631 9.97875 18.3166 9.97875C17.9701 9.97875 17.6866 9.69525 17.6866 9.34875Z" fill="#2F114D"/>
<path d="M19.4218 14.3494C19.006 14.2374 19.0199 10.3587 19.4218 10.2544C19.8236 10.15 20.3456 10.0332 20.4849 10.2544C20.6242 10.4756 20.4695 10.9228 20.4849 10.9237C20.5002 10.9247 20.5089 10.924 20.5243 10.9237C20.5396 10.9235 20.7605 10.1362 21.7843 10.1362C22.808 10.1362 23.2411 10.8844 23.2411 11.8294C23.2411 12.7744 23.6356 14.1768 23.2411 14.3494C22.8467 14.5219 22.5264 14.5366 22.1386 14.3494C21.7509 14.1622 22.1386 12.7744 22.1386 12.0656C22.1386 11.3569 21.9811 11.0419 21.4299 11.0419C20.8786 11.0419 20.5243 11.3962 20.5243 12.2231C20.5243 13.05 20.9065 14.1512 20.5243 14.3494C20.142 14.5476 19.8375 14.4613 19.4218 14.3494Z" fill="#2F114D"/>
<path d="M15.1738 10.4658C15.7088 10.4658 16.1233 10.5545 16.4053 10.7441C16.6907 10.9361 16.835 11.2278 16.835 11.6152C16.8348 11.967 16.6683 12.1865 16.502 12.3164C16.4193 12.381 16.3362 12.4238 16.2744 12.4502C16.2654 12.454 16.2561 12.4558 16.248 12.459C16.2613 12.4635 16.2763 12.4686 16.292 12.4746C16.3648 12.5027 16.4621 12.5484 16.5596 12.6201C16.7561 12.7649 16.953 13.0145 16.9531 13.4258C16.9531 13.8307 16.8205 14.1419 16.54 14.3496C16.2625 14.5552 15.8471 14.6543 15.292 14.6543H13.1582V10.4658H15.1738ZM20.3281 10.1006C20.4099 10.1209 20.481 10.1605 20.5244 10.2295C20.5649 10.2938 20.5823 10.3721 20.5879 10.4492C20.5935 10.5265 20.588 10.6064 20.5781 10.6777C20.5753 10.6979 20.5697 10.7175 20.5664 10.7363C20.6065 10.6665 20.663 10.5822 20.7422 10.498C20.9355 10.2924 21.2586 10.0899 21.7842 10.0898C22.3087 10.0898 22.6874 10.2817 22.9336 10.5996C23.1783 10.9157 23.288 11.3504 23.2881 11.8291C23.2881 12.2985 23.3857 12.8787 23.4355 13.374C23.4602 13.6193 23.4731 13.8448 23.4541 14.0205C23.4355 14.192 23.3842 14.3381 23.2598 14.3926C23.0589 14.4805 22.8735 14.5293 22.6875 14.5312C22.5013 14.5331 22.3172 14.4877 22.1182 14.3916C21.9971 14.3331 21.947 14.1871 21.9287 14.0186C21.91 13.8458 21.922 13.6283 21.9463 13.3984C21.9706 13.1683 22.008 12.9209 22.0381 12.6895C22.0684 12.4567 22.0918 12.2392 22.0918 12.0654C22.0918 11.7119 22.0514 11.4684 21.9512 11.3135C21.8545 11.1642 21.6957 11.0889 21.4297 11.0889C21.1648 11.0889 20.9532 11.1739 20.8066 11.3525C20.6589 11.5328 20.5714 11.8153 20.5713 12.2227C20.5713 12.6325 20.6654 13.1075 20.7139 13.5166C20.7378 13.7187 20.7511 13.9056 20.7324 14.0557C20.7139 14.2045 20.6622 14.3302 20.5459 14.3906C20.1454 14.5983 19.823 14.5059 19.4092 14.3945C19.3671 14.3831 19.3347 14.3499 19.3096 14.3115C19.2838 14.2722 19.2611 14.2205 19.2412 14.1602C19.2013 14.0392 19.1691 13.8749 19.1436 13.6836C19.0923 13.2998 19.0675 12.7984 19.0684 12.2988C19.0692 11.7993 19.0958 11.2988 19.1475 10.916C19.1732 10.7251 19.2058 10.5616 19.2451 10.4414C19.2647 10.3815 19.2864 10.3299 19.3115 10.291C19.336 10.2531 19.3682 10.2199 19.4102 10.209C19.6107 10.1569 19.8451 10.1009 20.0479 10.0859C20.1493 10.0785 20.2465 10.0804 20.3281 10.1006ZM9.74805 9.30176L9.74316 9.35352L9.40039 12.6621L10.5264 9.33398L10.5371 9.30176H11.6182V11.835L12.0791 9.96777L12.0918 9.91699L12.1406 9.93457L12.9062 10.21L12.9404 10.2227L12.9375 10.2578L12.6016 14.3535L12.5986 14.3965H11.2354L11.2266 14.3613L10.5703 11.9092L9.92285 14.3613L9.91406 14.3965H8.54688V9.30176H9.74805ZM18.915 10.207V14.3965H17.7188V10.207H18.915ZM14.3545 13.7725H15.252C15.4231 13.7725 15.549 13.735 15.6309 13.666C15.7113 13.5983 15.7568 13.4947 15.7568 13.3477C15.7568 13.2034 15.7032 13.1002 15.6084 13.0312C15.5113 12.9606 15.3654 12.9219 15.1738 12.9219H14.3545V13.7725ZM14.3545 12.1191H15.0947C15.2864 12.1191 15.4227 12.0809 15.5098 12.0156C15.5945 11.9521 15.6386 11.8586 15.6387 11.7334C15.6387 11.6045 15.6019 11.5106 15.5312 11.4482C15.4595 11.385 15.3449 11.3467 15.1738 11.3467H14.3545V12.1191ZM18.3164 8.67188C18.6888 8.67188 18.9931 8.9763 18.9932 9.34863C18.9932 9.72102 18.6888 10.0254 18.3164 10.0254C17.9441 10.0253 17.6396 9.72096 17.6396 9.34863C17.6397 8.97636 17.9441 8.67198 18.3164 8.67188Z" stroke="black" stroke-width="0.09375"/>
</g>
<defs>
<filter id="filter0_d_814_352" x="0.386198" y="8.37109" width="31.0977" height="18.6754" filterUnits="userSpaceOnUse" color-interpolation-filters="sRGB">
<feFlood flood-opacity="0" result="BackgroundImageFix"/>
<feColorMatrix in="SourceAlpha" type="matrix" values="0 0 0 0 0 0 0 0 0 0 0 0 0 0 0 0 0 0 127 0" result="hardAlpha"/>
<feOffset dy="1.59769"/>
<feGaussianBlur stdDeviation="0.798845"/>
<feComposite in2="hardAlpha" operator="out"/>
<feColorMatrix type="matrix" values="0 0 0 0 0 0 0 0 0 0 0 0 0 0 0 0 0 0 0.25 0"/>
<feBlend mode="normal" in2="BackgroundImageFix" result="effect1_dropShadow_814_352"/>
<feBlend mode="normal" in="SourceGraphic" in2="effect1_dropShadow_814_352" result="shape"/>
</filter>
<filter id="filter1_d_814_352" x="0.0213867" y="4.38128" width="31.8273" height="19.405" filterUnits="userSpaceOnUse" color-interpolation-filters="sRGB">
<feFlood flood-opacity="0" result="BackgroundImageFix"/>
<feColorMatrix in="SourceAlpha" type="matrix" values="0 0 0 0 0 0 0 0 0 0 0 0 0 0 0 0 0 0 127 0" result="hardAlpha"/>
<feOffset dy="1.59769"/>
<feGaussianBlur stdDeviation="0.98125"/>
<feComposite in2="hardAlpha" operator="out"/>
<feColorMatrix type="matrix" values="0 0 0 0 0 0 0 0 0 0 0 0 0 0 0 0 0 0 0.16 0"/>
<feBlend mode="normal" in2="BackgroundImageFix" result="effect1_dropShadow_814_352"/>
<feBlend mode="normal" in="SourceGraphic" in2="effect1_dropShadow_814_352" result="shape"/>
</filter>
<filter id="filter2_d_814_352" x="6.1" y="7.55833" width="18.4769" height="9.54284" filterUnits="userSpaceOnUse" color-interpolation-filters="sRGB">
<feFlood flood-opacity="0" result="BackgroundImageFix"/>
<feColorMatrix in="SourceAlpha" type="matrix" values="0 0 0 0 0 0 0 0 0 0 0 0 0 0 0 0 0 0 127 0" result="hardAlpha"/>
<feMorphology radius="0.666667" operator="dilate" in="SourceAlpha" result="effect1_dropShadow_814_352"/>
<feOffset dx="-0.666667" dy="0.666667"/>
<feGaussianBlur stdDeviation="0.533333"/>
<feComposite in2="hardAlpha" operator="out"/>
<feColorMatrix type="matrix" values="0 0 0 0 0 0 0 0 0 0 0 0 0 0 0 0 0 0 0.33 0"/>
<feBlend mode="normal" in2="BackgroundImageFix" result="effect1_dropShadow_814_352"/>
<feBlend mode="normal" in="SourceGraphic" in2="effect1_dropShadow_814_352" result="shape"/>
</filter>
</defs>
</svg>
