<svg width="48" height="48" viewBox="0 0 48 48" fill="none" xmlns="http://www.w3.org/2000/svg">
<path d="M21.9853 17.9172C22.4996 17.6354 23.119 17.6222 23.6448 17.8818L43.8275 27.8486C45.1592 28.5062 45.1639 30.4036 43.8355 31.0678L24.5189 40.7261C24.007 40.9821 23.4037 40.9789 22.8945 40.7176L3.95232 30.9973C2.66972 30.3391 2.64495 28.5146 3.90922 27.8219L21.9853 17.9172Z" fill="white"/>
<g filter="url(#filter0_d_814_364)">
<path d="M21.9853 12.7778C22.4996 12.496 23.119 12.4828 23.6448 12.7424L43.8275 22.7092C45.1592 23.3668 45.1639 25.2642 43.8355 25.9284L24.5189 35.5867C24.007 35.8427 23.4037 35.8395 22.8945 35.5782L3.95232 25.8579C2.66972 25.1997 2.64495 23.3752 3.90922 22.6825L21.9853 12.7778Z" fill="white"/>
</g>
<g filter="url(#filter1_d_814_364)">
<path d="M21.9853 7.34026C22.4996 7.05845 23.119 7.04527 23.6448 7.30494L43.8275 17.2717C45.1592 17.9293 45.1639 19.8267 43.8355 20.4909L24.5189 30.1492C24.007 30.4052 23.4037 30.402 22.8945 30.1407L3.95232 20.4204C2.66972 19.7622 2.64495 17.9377 3.90922 17.245L21.9853 7.34026Z" fill="white"/>
</g>
<g filter="url(#filter2_d_814_364)">
<path d="M16.9074 21.5241L15.8561 17.5905L14.8166 21.5241H12.8912L12.8906 14.0231H14.5444L13.9661 19.6104L15.8561 14.0231H17.3563V18.3347L18.1873 14.9681L19.3357 15.3816L18.8328 21.5241H16.9074Z" fill="#A057F6"/>
<path d="M19.8073 21.911V15.7685H22.7604C24.3551 15.7685 25.182 16.3 25.182 17.4222C25.182 18.4263 24.237 18.6625 24.237 18.6625V18.7216C24.237 18.7216 25.3592 18.9579 25.3592 20.1391C25.3592 21.3204 24.5913 21.911 22.9376 21.911H19.8073ZM22.7604 19.3122H21.461V20.7297H22.8785C23.4101 20.7297 23.7054 20.4935 23.7054 20.021C23.7054 19.5485 23.351 19.3122 22.7604 19.3122ZM21.461 18.2491H22.6423C23.2329 18.2491 23.5283 18.0129 23.5283 17.5994C23.5283 17.186 23.292 16.9497 22.7604 16.9497H21.461V18.2491Z" fill="#A057F6"/>
<path d="M28.3018 15.3816V21.5241H26.648V15.3816H28.3018ZM26.5299 14.0231C26.5299 13.5034 26.9552 13.0781 27.4749 13.0781C27.9947 13.0781 28.4199 13.5034 28.4199 14.0231C28.4199 14.5429 27.9947 14.9681 27.4749 14.9681C26.9552 14.9681 26.5299 14.5429 26.5299 14.0231Z" fill="#2F114D"/>
<path d="M29.1326 21.5241C28.509 21.3562 28.5298 15.5381 29.1326 15.3816C29.7354 15.2251 30.5184 15.0497 30.7273 15.3816C30.9362 15.7134 30.7043 16.3843 30.7273 16.3856C30.7503 16.387 30.7633 16.3859 30.7864 16.3856C30.8094 16.3853 31.1408 15.2044 32.6764 15.2044C34.212 15.2044 34.8617 16.3266 34.8617 17.7441C34.8617 19.1616 35.4534 21.2652 34.8617 21.5241C34.27 21.7829 33.7895 21.8048 33.2079 21.5241C32.6263 21.2433 33.2079 19.1616 33.2079 18.0984C33.2079 17.0353 32.9717 16.5628 32.1448 16.5628C31.3179 16.5628 30.7864 17.0944 30.7864 18.3347C30.7864 19.575 31.3597 21.2268 30.7864 21.5241C30.213 21.8213 29.7563 21.692 29.1326 21.5241Z" fill="#2F114D"/>
<path d="M22.7607 15.6982C23.5635 15.6983 24.1854 15.8316 24.6084 16.1162C25.0364 16.4042 25.2519 16.8409 25.252 17.4219C25.252 17.9499 25.0025 18.2796 24.7529 18.4746C24.6289 18.5715 24.5048 18.6352 24.4121 18.6748C24.3987 18.6805 24.3851 18.6837 24.373 18.6885C24.3926 18.6951 24.4144 18.702 24.4375 18.7109C24.5469 18.7532 24.6933 18.8227 24.8398 18.9307C25.1346 19.1479 25.4296 19.5218 25.4297 20.1387C25.4297 20.7459 25.2311 21.2128 24.8105 21.5244C24.3941 21.8329 23.7705 21.9814 22.9375 21.9814H19.7373V15.6982H22.7607ZM30.0723 15.1279C30.2242 15.1167 30.3689 15.1212 30.4912 15.1514C30.614 15.1818 30.7219 15.2403 30.7871 15.3438C30.8478 15.4401 30.8744 15.5572 30.8828 15.6729C30.8913 15.7892 30.8811 15.9102 30.8662 16.0176C30.8618 16.0491 30.8537 16.0792 30.8486 16.1084C30.9089 16.003 30.9933 15.8747 31.1133 15.7471C31.4033 15.4386 31.8883 15.1338 32.6768 15.1338C33.4634 15.1339 34.0312 15.4227 34.4004 15.8994C34.7675 16.3736 34.9316 17.026 34.9316 17.7441C34.9317 18.4484 35.0786 19.3185 35.1533 20.0615C35.1903 20.4297 35.2102 20.7676 35.1816 21.0312C35.1537 21.2884 35.0763 21.5072 34.8896 21.5889C34.5884 21.7206 34.311 21.7939 34.0322 21.7969C33.7527 21.7997 33.4764 21.7311 33.1777 21.5869C32.996 21.4992 32.92 21.2804 32.8926 21.0273C32.8645 20.7683 32.8835 20.4424 32.9199 20.0977C32.9564 19.7524 33.0114 19.3805 33.0566 19.0332C33.1021 18.6843 33.1377 18.3592 33.1377 18.0986C33.1377 17.5681 33.0781 17.2021 32.9277 16.9697C32.7827 16.7458 32.5436 16.6328 32.1445 16.6328C31.7472 16.6329 31.4299 16.7603 31.21 17.0283C30.9881 17.2988 30.8564 17.7233 30.8564 18.335C30.8565 18.9496 30.9986 19.6609 31.0713 20.2744C31.1072 20.5775 31.1256 20.858 31.0977 21.083C31.0699 21.3064 30.9931 21.4963 30.8184 21.5869C30.2179 21.8981 29.7348 21.7589 29.1143 21.5918C29.051 21.5747 29.0026 21.5254 28.9648 21.4678C28.9262 21.4087 28.8922 21.3308 28.8623 21.2402C28.8024 21.0587 28.7532 20.8118 28.7148 20.5244C28.638 19.9488 28.6012 19.1975 28.6025 18.4482C28.6039 17.6989 28.6432 16.9482 28.7207 16.374C28.7594 16.0877 28.8083 15.8424 28.8672 15.6621C28.8966 15.5721 28.93 15.4949 28.9678 15.4365C29.0045 15.3797 29.0523 15.3298 29.1152 15.3135C29.4162 15.2353 29.7681 15.1504 30.0723 15.1279ZM14.6221 13.9531L14.6143 14.0303L14.1006 18.9922L15.7891 14.001L15.8057 13.9531H17.4268V17.7549L18.1191 14.9512L18.1377 14.876L18.2109 14.9023L19.3594 15.3154L19.4102 15.334L19.4062 15.3877L18.9033 21.5303L18.8975 21.5947H16.8535L16.8398 21.542L15.8555 17.8633L14.8848 21.542L14.8711 21.5947H12.8213V21.5244L12.8203 14.0234V13.9531H14.6221ZM28.3721 15.3115V21.5947H26.5781V15.3115H28.3721ZM21.5312 20.6592H22.8789C23.1355 20.6591 23.3235 20.6024 23.4463 20.499C23.567 20.3974 23.6348 20.2414 23.6348 20.0205C23.6347 19.8044 23.5552 19.6493 23.4131 19.5459C23.2674 19.44 23.048 19.3829 22.7607 19.3828H21.5312V20.6592ZM21.5312 18.1787H22.6426C22.9299 18.1787 23.1341 18.1213 23.2646 18.0234C23.3919 17.928 23.458 17.7876 23.458 17.5996C23.458 17.4063 23.4029 17.2654 23.2969 17.1719C23.1893 17.0771 23.0171 17.0206 22.7607 17.0205H21.5312V18.1787ZM27.4746 13.0078C28.0332 13.0078 28.4902 13.4649 28.4902 14.0234C28.4901 14.5819 28.0331 15.0381 27.4746 15.0381C26.9163 15.0379 26.4601 14.5818 26.46 14.0234C26.46 13.465 26.9162 13.008 27.4746 13.0078Z" stroke="black" stroke-width="0.140625"/>
</g>
<defs>
<filter id="filter0_d_814_364" x="0.579052" y="12.5566" width="46.6466" height="28.0128" filterUnits="userSpaceOnUse" color-interpolation-filters="sRGB">
<feFlood flood-opacity="0" result="BackgroundImageFix"/>
<feColorMatrix in="SourceAlpha" type="matrix" values="0 0 0 0 0 0 0 0 0 0 0 0 0 0 0 0 0 0 127 0" result="hardAlpha"/>
<feOffset dy="2.39653"/>
<feGaussianBlur stdDeviation="1.19827"/>
<feComposite in2="hardAlpha" operator="out"/>
<feColorMatrix type="matrix" values="0 0 0 0 0 0 0 0 0 0 0 0 0 0 0 0 0 0 0.25 0"/>
<feBlend mode="normal" in2="BackgroundImageFix" result="effect1_dropShadow_814_364"/>
<feBlend mode="normal" in="SourceGraphic" in2="effect1_dropShadow_814_364" result="shape"/>
</filter>
<filter id="filter1_d_814_364" x="0.031836" y="6.57192" width="47.741" height="29.1072" filterUnits="userSpaceOnUse" color-interpolation-filters="sRGB">
<feFlood flood-opacity="0" result="BackgroundImageFix"/>
<feColorMatrix in="SourceAlpha" type="matrix" values="0 0 0 0 0 0 0 0 0 0 0 0 0 0 0 0 0 0 127 0" result="hardAlpha"/>
<feOffset dy="2.39653"/>
<feGaussianBlur stdDeviation="1.47187"/>
<feComposite in2="hardAlpha" operator="out"/>
<feColorMatrix type="matrix" values="0 0 0 0 0 0 0 0 0 0 0 0 0 0 0 0 0 0 0.16 0"/>
<feBlend mode="normal" in2="BackgroundImageFix" result="effect1_dropShadow_814_364"/>
<feBlend mode="normal" in="SourceGraphic" in2="effect1_dropShadow_814_364" result="shape"/>
</filter>
<filter id="filter2_d_814_364" x="9.15" y="11.3375" width="27.7151" height="14.314" filterUnits="userSpaceOnUse" color-interpolation-filters="sRGB">
<feFlood flood-opacity="0" result="BackgroundImageFix"/>
<feColorMatrix in="SourceAlpha" type="matrix" values="0 0 0 0 0 0 0 0 0 0 0 0 0 0 0 0 0 0 127 0" result="hardAlpha"/>
<feMorphology radius="1" operator="dilate" in="SourceAlpha" result="effect1_dropShadow_814_364"/>
<feOffset dx="-1" dy="1"/>
<feGaussianBlur stdDeviation="0.8"/>
<feComposite in2="hardAlpha" operator="out"/>
<feColorMatrix type="matrix" values="0 0 0 0 0 0 0 0 0 0 0 0 0 0 0 0 0 0 0.33 0"/>
<feBlend mode="normal" in2="BackgroundImageFix" result="effect1_dropShadow_814_364"/>
<feBlend mode="normal" in="SourceGraphic" in2="effect1_dropShadow_814_364" result="shape"/>
</filter>
</defs>
</svg>
