<svg width="61" height="29" viewBox="0 0 61 29" fill="none" xmlns="http://www.w3.org/2000/svg">
<path d="M11.5 27.5543C11.5 27.5543 10.5 19.5 9.5 19C8.5 18.5 6 27.5543 6 27.5543H1.00141L1 6.52L5 2.5C5 2.5 3.5 15.5 4.5 18C6.28354 22.4589 8.90788 6.52 8.90788 6.52L11 2L12.9084 6.52C12.9084 6.52 11.4995 21.3898 14.5 18.8918C16.7914 16.9841 15.5 6.52 15.5 6.52L19 9.5L17 27.5543H11.5Z" fill="#A057F6"/>
<path d="M19.4444 27.5543L21 10.1425C21 10.1425 22.6388 10.5 27.3194 11.5C32 12.5 32 12.82 32.5 15.5C33 18.18 31.257 18.8918 31.257 18.8918V19.0493C31.257 19.0493 34.2495 19.6793 34.2495 22.8293C34.2495 25.9793 32.2019 27.5543 27.7919 27.5543H19.4444ZM27.3194 20.6243C26.8469 20.5029 26.1719 20.3931 25.5 20.6243C23.9776 21.148 22.885 23.1189 23.8544 24.4043C24.7433 25.5828 26.5531 25.7627 28 25C29.0683 24.4369 29.8395 23.7743 29.8395 22.5143C29.8395 21.2543 27.7919 20.7457 27.3194 20.6243ZM25.5 17.7893C26.0622 17.9598 27.3194 17.7893 27.3194 17.7893C28.8944 17.7893 29.8395 17.1025 29.8395 16C29.8395 14.8975 28.5 14 27.3194 13.6607C26.1388 13.3214 24.6668 13.2421 23.8544 14.3243C22.9551 15.5223 24.0665 17.3545 25.5 17.7893Z" fill="#A057F6"/>
<path d="M40.705 10C40.705 10 40.705 19.3793 40.705 26.38C40.705 28.1022 36.295 28.1022 36.295 26.38C36.295 17.245 36.295 10 36.295 10H40.705ZM35.98 6.3775C35.98 4.9915 37.114 3.8575 38.5 3.8575C39.886 3.8575 41.02 4.9915 41.02 6.3775C41.02 7.7635 39.886 8.8975 38.5 8.8975C37.114 8.8975 35.98 7.7635 35.98 6.3775Z" fill="white"/>
<path d="M44.312 26.995C42.649 26.5473 42.7046 11.0323 44.312 10.615C45.9194 10.1977 48.0074 9.73015 48.5645 10.615C49.1216 11.4998 48.5031 13.2889 48.5645 13.2925C48.6259 13.2961 48.6605 13.2933 48.722 13.2925C48.7835 13.2917 49.667 10.1425 53.762 10.1425C57.857 10.1425 59.5895 13.135 59.5895 16.915C59.5895 20.695 61.1673 26.3047 59.5895 26.995C58.0117 27.6853 56.7305 27.7437 55.1795 26.995C53.6286 26.2463 55.1795 20.695 55.1795 17.86C55.1795 15.025 54.5495 13.765 52.3445 13.765C50.1395 13.765 48.722 15.1825 48.722 18.49C48.722 21.7975 50.2509 26.2022 48.722 26.995C47.1931 27.7878 45.975 27.4427 44.312 26.995Z" fill="white"/>
<path d="M11.5 27.5543C11.5 27.5543 10.5 19.5 9.5 19C8.5 18.5 6 27.5543 6 27.5543H1.00141L1 6.52L5 2.5C5 2.5 3.5 15.5 4.5 18C6.28354 22.4589 8.90788 6.52 8.90788 6.52L11 2L12.9084 6.52C12.9084 6.52 11.4995 21.3898 14.5 18.8918C16.7914 16.9841 15.5 6.52 15.5 6.52L19 9.5L17 27.5543H11.5Z" stroke="black"/>
<path d="M19.4444 27.5543L21 10.1425C21 10.1425 22.6388 10.5 27.3194 11.5C32 12.5 32 12.82 32.5 15.5C33 18.18 31.257 18.8918 31.257 18.8918V19.0493C31.257 19.0493 34.2495 19.6793 34.2495 22.8293C34.2495 25.9793 32.2019 27.5543 27.7919 27.5543H19.4444ZM27.3194 20.6243C26.8469 20.5029 26.1719 20.3931 25.5 20.6243C23.9776 21.148 22.885 23.1189 23.8544 24.4043C24.7433 25.5828 26.5531 25.7627 28 25C29.0683 24.4369 29.8395 23.7743 29.8395 22.5143C29.8395 21.2543 27.7919 20.7457 27.3194 20.6243ZM25.5 17.7893C26.0622 17.9598 27.3194 17.7893 27.3194 17.7893C28.8944 17.7893 29.8395 17.1025 29.8395 16C29.8395 14.8975 28.5 14 27.3194 13.6607C26.1388 13.3214 24.6668 13.2421 23.8544 14.3243C22.9551 15.5223 24.0665 17.3545 25.5 17.7893Z" stroke="black"/>
<path d="M40.705 10C40.705 10 40.705 19.3793 40.705 26.38C40.705 28.1022 36.295 28.1022 36.295 26.38C36.295 17.245 36.295 10 36.295 10H40.705ZM35.98 6.3775C35.98 4.9915 37.114 3.8575 38.5 3.8575C39.886 3.8575 41.02 4.9915 41.02 6.3775C41.02 7.7635 39.886 8.8975 38.5 8.8975C37.114 8.8975 35.98 7.7635 35.98 6.3775Z" stroke="black"/>
<path d="M44.312 26.995C42.649 26.5473 42.7046 11.0323 44.312 10.615C45.9194 10.1977 48.0074 9.73015 48.5645 10.615C49.1216 11.4998 48.5031 13.2889 48.5645 13.2925C48.6259 13.2961 48.6605 13.2933 48.722 13.2925C48.7835 13.2917 49.667 10.1425 53.762 10.1425C57.857 10.1425 59.5895 13.135 59.5895 16.915C59.5895 20.695 61.1673 26.3047 59.5895 26.995C58.0117 27.6853 56.7305 27.7437 55.1795 26.995C53.6286 26.2463 55.1795 20.695 55.1795 17.86C55.1795 15.025 54.5495 13.765 52.3445 13.765C50.1395 13.765 48.722 15.1825 48.722 18.49C48.722 21.7975 50.2509 26.2022 48.722 26.995C47.1931 27.7878 45.975 27.4427 44.312 26.995Z" stroke="black"/>
</svg>
